<?xml version="1.0" standalone="no"?>
<!DOCTYPE svg PUBLIC "-//W3C//DTD SVG 20010904//EN"
 "http://www.w3.org/TR/2001/REC-SVG-20010904/DTD/svg10.dtd">
<svg version="1.0" xmlns="http://www.w3.org/2000/svg"
 width="570.000000pt" height="570.000000pt" viewBox="0 0 570.000000 570.000000"
 preserveAspectRatio="xMidYMid meet">
<metadata>
Created by potrace 1.14, written by Peter Selinger 2001-2017
</metadata>
<g transform="translate(0.000000,570.000000) scale(0.100000,-0.100000)"
fill="#000000" stroke="none">
<path d="M3554 4139 c-3 -5 -11 -9 -18 -9 -8 0 -31 -8 -52 -17 -22 -9 -43 -17
-49 -18 -5 -1 -17 -4 -25 -7 -8 -4 -46 -16 -85 -29 -38 -12 -74 -24 -80 -28
-5 -3 -14 -6 -20 -7 -5 -1 -84 -28 -175 -59 -91 -31 -169 -58 -175 -59 -5 -2
-18 -6 -27 -10 -9 -4 -22 -9 -30 -10 -7 -2 -20 -6 -28 -9 -8 -3 -35 -13 -60
-21 -25 -8 -62 -22 -82 -30 -21 -9 -38 -14 -38 -11 0 3 -13 -1 -30 -10 -16 -8
-32 -15 -35 -15 -6 -1 -9 -2 -100 -31 -38 -13 -73 -24 -77 -25 -5 -1 -10 -3
-13 -4 -28 -14 -49 13 -34 42 6 10 5 19 -1 23 -7 4 -7 12 0 25 7 13 7 21 0 25
-8 5 -8 11 0 20 6 8 7 16 2 19 -5 3 -6 23 -2 46 4 21 3 37 -1 34 -5 -3 -5 5
-1 17 14 37 3 71 -22 67 -20 -3 -21 -7 -21 -175 l0 -173 -27 -9 c-16 -6 -28
-7 -28 -4 0 3 -7 0 -16 -8 -26 -22 -30 2 -29 179 1 92 0 173 -3 180 -2 6 -13
12 -23 12 -19 0 -20 -9 -19 -196 1 -108 -1 -198 -3 -200 -9 -10 -141 -54 -158
-54 -11 0 -19 -5 -19 -10 0 -6 -6 -10 -12 -9 -7 1 -20 -1 -28 -4 -39 -15 -167
-59 -182 -62 -9 -2 -27 -9 -40 -16 -13 -7 -24 -12 -25 -11 -16 11 -33 -2 -33
-24 0 -24 3 -25 28 -19 15 4 34 9 42 10 8 1 33 10 54 20 22 9 47 18 56 20 9 2
33 10 53 19 20 8 37 12 37 9 0 -3 6 0 13 6 8 6 22 12 33 14 10 1 25 6 32 10 6
5 12 5 12 1 0 -3 12 1 26 11 14 9 32 14 39 11 8 -3 15 -1 17 4 6 16 58 20 59
4 2 -18 2 -50 0 -69 -1 -15 -60 -45 -93 -48 -10 -1 -18 -6 -18 -11 0 -5 -3 -7
-6 -3 -4 3 -19 0 -35 -9 -16 -8 -29 -12 -29 -9 0 3 -13 -1 -30 -10 -16 -8 -33
-16 -37 -16 -5 -1 -18 -5 -31 -10 -13 -5 -29 -9 -36 -9 -7 0 -16 -3 -20 -7 -3
-4 -14 -8 -23 -9 -10 -2 -36 -10 -59 -19 -32 -12 -41 -20 -37 -34 3 -11 10
-18 16 -17 7 2 29 6 50 11 20 4 37 11 37 17 0 5 5 6 10 3 6 -3 16 -3 23 2 6 4
15 8 20 9 4 1 9 3 12 4 3 1 10 4 15 5 6 1 12 4 15 5 3 1 8 3 13 5 4 1 14 5 22
8 39 18 196 67 211 67 18 0 20 -15 6 -37 -5 -8 -3 -13 3 -13 6 0 9 -4 5 -9 -7
-13 -8 -1001 0 -1009 11 -11 35 -10 36 1 1 7 2 253 3 547 l1 534 30 15 c17 8
37 18 46 22 12 6 18 3 21 -9 2 -9 4 -262 3 -560 0 -357 3 -546 10 -550 18 -12
34 -10 39 4 3 7 1 16 -5 19 -5 4 -6 12 -2 18 9 15 11 47 3 47 -4 0 -4 20 0 45
4 25 4 47 2 50 -9 8 -8 55 0 55 4 0 4 10 -1 23 -4 12 -5 33 -1 47 4 14 3 33
-2 43 -5 9 -5 17 0 17 9 0 8 53 -2 69 -4 5 -2 12 4 16 6 4 7 13 1 23 -5 9 -5
26 -1 37 4 11 3 25 -2 32 -5 7 -5 14 2 18 7 4 7 12 0 26 -7 13 -7 25 0 38 7
14 7 22 0 26 -8 5 -7 11 1 21 8 10 9 18 0 27 -6 8 -8 17 -4 20 9 9 10 76 1 70
-5 -2 -4 7 2 21 6 17 6 26 -2 28 -8 3 -8 10 1 25 8 15 8 24 1 28 -8 5 -8 11 0
20 8 10 8 19 0 34 -6 12 -7 21 -3 21 7 0 9 49 3 58 -6 8 -3 102 3 102 5 0 5 5
2 10 -3 6 1 10 9 10 8 0 27 5 43 12 28 11 42 15 66 21 6 1 17 5 22 8 6 4 35
14 65 23 30 10 62 20 70 24 8 3 20 6 25 7 6 0 19 6 30 12 11 6 25 12 30 13 6
2 15 4 20 6 6 2 39 13 75 24 36 11 72 24 80 27 8 3 24 8 35 10 11 2 35 10 53
19 18 8 36 13 41 9 5 -3 11 0 13 5 2 6 13 12 26 13 12 0 22 4 22 8 0 4 17 10
38 14 20 4 43 12 51 18 8 7 17 11 20 10 3 -1 24 2 45 8 28 8 41 7 46 -1 4 -6
11 -10 16 -8 9 2 22 -4 151 -63 34 -16 65 -29 68 -29 4 0 37 -14 73 -31 37
-17 94 -42 127 -56 33 -14 85 -36 115 -50 55 -25 122 -55 170 -76 14 -5 28
-10 32 -9 4 1 10 -8 14 -21 11 -32 11 -590 1 -604 -6 -8 -6 -13 0 -13 5 0 9
-27 7 -61 -1 -51 1 -62 16 -67 15 -6 883 -6 927 0 17 2 28 65 14 81 -7 9 -40
13 -111 13 -55 -1 -100 3 -100 7 0 5 -5 5 -11 1 -16 -9 -110 -11 -116 -1 -2 4
-10 4 -16 0 -16 -10 -48 -10 -69 0 -10 4 -18 4 -18 0 0 -4 -28 -7 -62 -5 -82
3 -79 3 -108 -1 -14 -2 -31 1 -37 6 -7 5 -13 5 -13 1 0 -10 -96 -11 -106 -1
-4 3 -14 3 -23 -1 -18 -9 -39 -8 -61 2 -14 6 -16 45 -15 294 0 158 4 293 8
299 6 10 15 9 40 -4 42 -22 50 -23 65 -7 7 8 9 14 4 14 -4 0 -7 13 -6 29 3 47
-7 80 -22 74 -8 -3 -14 0 -14 6 0 6 -3 10 -7 9 -5 -1 -25 6 -45 15 -74 33
-108 47 -113 47 -3 -1 -18 6 -33 14 -22 12 -87 42 -112 51 -8 3 -83 35 -105
45 -11 5 -42 19 -70 31 -27 12 -75 34 -105 48 -30 15 -59 29 -65 30 -5 2 -26
10 -45 18 -19 8 -45 19 -58 24 -19 7 -21 11 -10 23 7 8 16 12 20 10 4 -2 9 0
12 5 4 5 24 12 46 16 22 4 40 10 40 14 0 4 7 8 15 9 8 1 21 3 29 4 20 2 28 38
10 45 -7 3 -49 -7 -91 -22 -190 -67 -219 -77 -228 -79 -5 -1 -14 -4 -20 -7 -5
-4 -23 -10 -40 -14 -16 -5 -32 -9 -35 -10 -3 -1 -18 -5 -35 -10 -16 -4 -40
-15 -52 -23 -13 -8 -23 -12 -23 -9 0 3 -35 -7 -79 -23 -43 -16 -81 -26 -85
-23 -3 4 -6 1 -6 -6 0 -7 -4 -10 -8 -7 -4 2 -28 -4 -52 -15 -24 -11 -51 -21
-59 -22 -9 -1 -22 -6 -28 -10 -7 -5 -13 -6 -13 -3 0 3 -20 -3 -45 -14 -25 -11
-45 -17 -45 -13 0 3 -7 0 -15 -7 -8 -7 -15 -10 -15 -6 0 4 -14 -1 -31 -10 -17
-9 -43 -18 -57 -20 -15 -3 -29 -10 -33 -15 -3 -6 -9 -10 -13 -9 -15 3 -76 -13
-76 -19 0 -4 -6 -8 -12 -8 -7 -1 -28 -4 -45 -8 -25 -6 -33 -4 -34 6 -4 60 -3
76 8 87 6 6 18 12 25 12 7 0 47 13 88 28 41 16 78 29 82 30 4 2 13 5 20 7 132
46 226 77 238 80 8 2 15 4 15 5 0 3 39 12 57 13 9 1 14 5 12 9 -3 4 2 8 10 8
26 0 30 1 43 12 7 6 21 7 30 4 10 -4 14 -4 10 0 -6 6 158 68 208 78 11 3 22 5
25 6 3 2 8 2 13 1 4 0 7 4 7 9 0 6 10 10 23 10 12 0 34 6 48 14 28 14 80 30
92 28 4 -1 7 3 7 10 0 6 3 9 6 5 3 -3 25 1 47 10 23 8 47 16 52 17 6 1 15 4
20 7 13 8 68 23 77 21 4 -1 12 7 18 17 7 15 7 22 -2 28 -19 11 -37 12 -44 2z
m-1281 -503 c2 -6 4 -29 3 -51 -1 -28 -5 -40 -16 -40 -8 0 -17 -3 -20 -7 -4
-4 -20 -10 -37 -14 l-30 -6 1 47 c1 43 4 49 35 64 38 20 58 22 64 7z"/>
<path d="M1476 3863 c-3 -4 -84 -7 -178 -7 l-173 -1 0 -85 c0 -47 -4 -90 -8
-96 -3 -6 -3 -14 1 -18 11 -12 9 -136 -3 -136 -7 0 -7 -3 0 -8 9 -6 13 -175 5
-192 -1 -3 -2 -9 -1 -13 7 -40 7 -68 0 -73 -5 -3 -6 -11 -2 -17 4 -7 8 -25 9
-42 1 -16 2 -34 3 -40 1 -8 88 -12 123 -6 3 0 6 66 6 145 0 79 3 149 6 155 4
6 40 11 86 11 46 0 82 5 86 11 12 20 13 78 1 86 -7 4 -47 9 -90 9 -43 1 -80 4
-83 7 -10 10 -12 47 -3 47 6 0 7 5 4 10 -9 15 -12 110 -4 110 4 0 6 8 5 18 -1
15 11 17 122 17 67 -1 123 3 124 7 8 42 2 87 -13 96 -9 6 -20 8 -23 5z"/>
<path d="M659 3851 c-1 -3 -3 -136 -4 -296 -2 -159 -3 -293 -4 -298 -2 -13
-54 -31 -99 -33 -24 -1 -45 -4 -48 -6 -2 -3 -5 -25 -7 -49 l-2 -44 68 -1 c99
-2 168 34 208 108 7 13 14 30 16 38 5 29 5 571 0 577 -8 7 -127 11 -128 4z"/>
<path d="M2634 3525 c-14 -14 -22 -30 -19 -35 3 -6 1 -10 -6 -10 -10 0 -10 -3
-1 -12 7 -7 12 -22 12 -35 0 -13 4 -23 9 -23 17 0 22 -34 7 -46 -9 -6 -12 -14
-8 -18 4 -4 2 -7 -3 -6 -21 5 -35 -1 -58 -22 -14 -13 -24 -25 -24 -28 0 -3 -4
-14 -10 -24 -9 -17 -13 -18 -25 -5 -18 17 -16 58 3 73 16 12 18 34 5 55 -7 11
-6 12 5 6 11 -7 12 -6 2 7 -7 8 -9 18 -5 23 4 4 0 5 -8 3 -8 -3 -14 -11 -12
-17 1 -6 -2 -11 -8 -11 -5 0 -10 -9 -10 -20 0 -11 -3 -19 -7 -18 -5 1 -18 -4
-30 -12 -28 -18 -30 -56 -4 -63 12 -3 21 -18 25 -42 9 -45 33 -85 51 -85 8 0
20 7 29 15 24 24 36 18 32 -17 -2 -18 0 -42 5 -55 4 -12 5 -25 0 -27 -9 -6
-14 -65 -12 -146 5 -272 5 -281 -8 -289 -14 -9 -83 -7 -163 5 -46 6 -46 6 -44
-20 2 -14 0 -26 -3 -26 -4 0 -4 -27 -1 -60 3 -33 2 -60 -3 -60 -4 0 -5 -6 0
-12 4 -7 8 -17 9 -23 0 -5 2 -16 2 -23 2 -12 56 -13 77 0 6 3 280 6 610 7 561
3 1013 6 1559 14 203 3 230 2 245 -13 15 -16 81 -44 81 -34 0 2 18 -5 39 -16
47 -23 81 -64 81 -96 0 -22 -23 -54 -40 -54 -24 0 -44 -90 -31 -139 6 -20 14
-26 37 -26 16 0 34 -3 41 -8 6 -4 14 -3 17 1 4 8 50 9 66 2 3 -1 10 -1 15 0 6
1 34 4 64 6 30 2 57 6 60 9 3 3 5 31 5 63 -1 52 -4 60 -36 92 -34 34 -35 38
-28 83 4 26 9 48 11 50 2 2 17 8 32 15 l29 12 -5 123 c-3 67 -8 134 -11 150
-3 15 -8 37 -10 50 -7 34 -46 118 -72 153 -13 17 -22 34 -19 37 3 4 2 5 -1 2
-7 -5 -34 19 -34 32 -1 4 -26 28 -56 53 -31 25 -64 53 -74 63 -11 9 -24 17
-30 17 -5 0 -10 4 -10 8 0 10 -50 35 -57 29 -2 -3 10 -28 26 -56 17 -28 40
-72 51 -99 11 -26 25 -55 31 -66 8 -14 8 -16 -2 -11 -8 6 -10 4 -3 -6 23 -37
27 -143 5 -167 -18 -21 -68 -40 -93 -36 -10 1 -18 -2 -18 -8 0 -5 -6 -8 -12
-5 -7 2 -23 -5 -35 -16 -25 -22 -103 -31 -115 -13 -5 7 -8 7 -8 1 0 -9 -103
-12 -135 -5 -5 1 -12 2 -15 0 -14 -5 -158 -3 -173 3 -9 3 -17 2 -17 -4 0 -6
-5 -7 -12 -3 -16 10 -58 12 -58 2 0 -4 -10 -4 -22 0 -13 4 -315 7 -673 7 -422
0 -653 4 -657 10 -5 7 -8 7 -8 0 0 -12 -130 -7 -145 5 -6 5 -12 26 -14 47 -6
72 -9 98 -11 98 -2 0 -3 33 -4 73 -1 39 2 72 7 72 5 0 5 5 -1 13 -5 6 -13 32
-16 57 -3 25 -8 63 -12 86 -4 31 -1 44 12 55 10 8 15 9 11 3 -3 -6 3 -35 14
-65 12 -34 17 -63 13 -79 -7 -24 -8 -37 -5 -60 2 -16 31 -11 31 5 0 8 5 15 11
15 5 0 8 3 6 8 -5 8 -20 141 -21 189 -1 17 -5 29 -10 26 -4 -3 -5 3 -2 14 4
11 -1 36 -9 56 -8 21 -12 37 -8 37 11 0 -40 50 -51 50 -6 1 -21 9 -34 20 -23
19 -24 37 -7 91 10 29 -12 74 -41 88 -22 9 -28 8 -50 -14z m60 -687 c1 -7 5
-19 10 -26 4 -7 9 -32 11 -55 2 -23 4 -42 5 -42 1 0 3 -17 4 -38 1 -32 -2 -39
-22 -44 -12 -3 -25 -3 -28 0 -8 7 -7 181 1 206 7 23 15 23 19 -1z"/>
<path d="M3168 3544 c-4 -3 -14 -7 -25 -9 -10 -2 -19 -4 -20 -5 -2 -2 -6 -3
-10 -4 -5 -1 -38 -12 -75 -25 -55 -18 -68 -27 -69 -44 -2 -44 -1 -129 3 -132
3 -4 99 -7 169 -6 l46 1 1 103 c0 97 -6 135 -20 121z"/>
<path d="M3276 3542 c-3 -3 -6 -54 -6 -114 l0 -109 113 3 112 3 0 65 c1 82 -2
96 -23 97 -25 2 -46 7 -52 13 -10 10 -139 48 -144 42z"/>
<path d="M2974 3228 c-4 -6 -8 -161 -5 -199 1 -13 18 -15 109 -15 l107 1 1
108 c1 74 -2 107 -10 108 -42 6 -198 3 -202 -3z"/>
<path d="M3274 3225 c-3 -6 -3 -55 -2 -110 l3 -100 93 -2 c51 -1 100 -4 108
-7 9 -3 12 -1 9 4 -3 6 -2 10 4 10 5 0 8 10 6 22 -3 12 0 27 6 35 7 7 7 13 2
13 -6 0 -9 31 -8 70 1 39 -1 71 -4 71 -31 8 -214 3 -217 -6z"/>
<path d="M209 2990 c-1 -45 -1 -518 0 -545 1 -17 8 -21 41 -21 47 0 50 6 47
144 -1 53 2 97 8 102 6 4 28 7 50 7 36 -2 40 -5 46 -34 4 -20 2 -33 -3 -33 -7
0 -7 -5 -1 -12 5 -7 8 -48 7 -90 0 -43 2 -78 5 -79 25 -4 68 -6 76 -3 8 3 13
512 6 590 -1 7 -17 10 -38 9 -53 -4 -57 -4 -51 -11 3 -3 2 -20 -2 -38 -4 -19
-4 -40 1 -47 4 -7 3 -19 -3 -26 -6 -7 -7 -13 -2 -13 5 0 9 -26 8 -57 l-1 -58
-43 -3 c-23 -2 -46 0 -51 5 -10 10 -15 200 -6 209 3 4 2 15 -3 25 -7 13 -21
17 -50 16 -39 -1 -40 -3 -41 -37z"/>
<path d="M737 3020 c-32 -10 -77 -49 -77 -67 0 -7 -5 -13 -12 -13 -6 0 -9 -3
-6 -6 4 -3 2 -19 -2 -35 -5 -17 -5 -31 1 -35 5 -3 6 -11 2 -17 -10 -17 -10
-40 1 -54 5 -8 5 -13 0 -13 -11 0 -11 -91 0 -108 4 -7 4 -12 -1 -12 -4 0 -7
-24 -7 -52 1 -29 3 -53 4 -53 1 0 4 -13 6 -30 6 -38 60 -90 106 -103 45 -12
100 6 133 44 14 16 25 31 26 34 0 3 3 14 6 25 5 22 7 356 1 395 -5 40 -36 77
-79 94 -43 18 -60 18 -102 6z m76 -98 c12 -10 15 -42 16 -160 1 -80 4 -148 6
-151 3 -2 0 -10 -6 -18 -9 -10 -8 -13 2 -13 10 0 10 -3 2 -11 -6 -6 -9 -18 -6
-25 3 -8 -1 -14 -10 -14 -8 0 -17 -5 -19 -12 -3 -9 -12 -9 -36 1 -36 15 -34 0
-32 270 1 105 4 127 18 137 20 15 44 13 65 -4z"/>
<path d="M1079 3020 c-8 -6 -11 -84 -10 -296 1 -159 3 -289 4 -290 1 -2 16 -5
32 -7 52 -8 61 4 58 78 -1 37 -5 70 -7 73 -3 2 -1 13 5 23 6 13 6 25 0 37 -7
13 -6 23 1 30 9 9 9 12 0 12 -10 0 -10 5 -2 20 14 25 28 18 25 -12 -1 -13 4
-38 12 -56 7 -18 12 -36 12 -40 -1 -4 0 -10 1 -14 4 -12 6 -20 15 -68 16 -81
20 -87 58 -86 22 1 33 7 35 19 2 9 7 17 11 17 3 0 6 12 5 27 0 14 7 60 17 102
10 42 17 78 17 81 -2 9 14 40 21 40 3 0 6 -61 6 -136 0 -141 3 -152 45 -148 8
1 22 2 30 3 13 1 15 40 15 290 0 159 -3 293 -7 297 -9 8 -118 13 -119 5 0 -3
-2 -13 -4 -21 -1 -8 -5 -28 -8 -45 -3 -16 -8 -42 -11 -57 -6 -29 -10 -49 -20
-108 -10 -55 -17 -94 -21 -110 -2 -8 -4 -22 -4 -30 -1 -20 -24 4 -26 27 -1 10
-8 45 -14 78 -7 33 -14 71 -17 85 -2 14 -7 36 -10 50 -3 13 -7 38 -9 56 -9 69
-18 78 -73 80 -28 0 -56 -3 -63 -6z"/>
<path d="M1636 3014 c-6 -15 -10 -444 -4 -449 2 -2 1 -33 -2 -68 -3 -39 -1
-64 5 -65 24 -4 231 -8 241 -5 14 5 15 81 0 86 -6 2 -41 3 -78 3 -38 -1 -69 3
-71 9 -3 9 -2 93 2 137 1 13 11 17 52 16 58 0 62 2 60 37 -3 56 -2 55 -57 55
-32 0 -54 5 -56 13 -3 6 -4 41 -4 77 l1 65 80 5 79 5 4 37 c2 22 -2 39 -10 44
-7 5 -63 9 -125 10 -86 1 -113 -2 -117 -12z"/>
<path d="M232 2332 c-32 -3 -33 -5 -29 -43 2 -21 1 -39 -2 -39 -3 0 -5 -44 -3
-97 1 -54 3 -102 3 -108 0 -5 -1 -71 -1 -145 -1 -74 -1 -139 0 -145 1 -5 2
-13 1 -17 0 -5 2 -8 6 -9 67 -8 73 -7 74 9 7 92 2 581 -6 588 -5 5 -25 8 -43
6z"/>
<path d="M1795 2330 c-11 -4 -23 -6 -26 -4 -8 4 -62 -64 -67 -85 -12 -42 -11
-400 1 -432 26 -73 107 -113 167 -83 25 13 76 64 64 64 -4 0 -1 6 5 14 9 10
12 76 13 218 0 182 -2 208 -19 238 -33 59 -89 87 -138 70z m45 -96 c0 6 6 2
13 -8 20 -27 16 -394 -4 -407 -21 -13 -45 -11 -59 7 -15 17 -23 291 -9 300 5
2 4 16 -1 30 -13 32 -12 37 1 28 8 -5 9 -2 1 12 -9 15 -6 22 16 36 20 13 28
14 34 5 4 -7 8 -8 8 -3z"/>
<path d="M2075 2330 c-3 -6 2 -95 5 -95 3 0 9 -40 11 -77 1 -16 5 -28 8 -28 3
0 6 -10 7 -22 1 -33 13 -118 20 -153 3 -16 7 -39 9 -50 1 -11 6 -49 10 -85 5
-36 8 -68 7 -72 -5 -21 104 -35 123 -17 3 3 7 28 10 55 3 27 8 56 10 64 2 8 7
38 11 65 3 28 9 54 12 59 3 5 6 25 7 45 1 20 5 50 8 66 4 17 9 48 12 70 3 23
8 52 11 65 11 48 15 110 7 111 -77 7 -81 6 -79 -23 1 -15 -1 -28 -4 -28 -3 0
-7 -17 -8 -39 -2 -21 -5 -49 -7 -62 -3 -13 -7 -44 -10 -69 -3 -25 -7 -56 -10
-70 -4 -14 -7 -42 -9 -62 -4 -60 -24 -67 -30 -12 -2 16 -5 29 -6 29 -1 0 -3
16 -5 35 -9 75 -15 126 -20 152 -3 14 -7 46 -9 70 -6 67 -16 83 -54 83 -19 0
-35 -2 -37 -5z"/>
<path d="M3380 2328 c0 -5 -5 -7 -12 -5 -9 1 -12 -70 -13 -295 0 -194 3 -298
10 -299 32 -5 193 -6 208 -2 14 4 17 13 15 46 l-3 41 -68 1 c-70 2 -97 16 -76
41 6 7 6 15 1 17 -4 3 -6 27 -3 53 l6 48 44 3 c47 3 61 14 61 48 0 36 -17 49
-61 50 -50 0 -52 5 -49 100 1 22 0 46 -2 54 -2 12 13 14 75 14 l77 0 -2 43 -1
43 -104 3 c-57 2 -103 0 -103 -4z"/>
<path d="M3902 2326 c-1 -6 -2 -82 -3 -168 -2 -154 -9 -192 -25 -125 -10 39
-9 39 -17 57 -3 8 -8 26 -10 40 -3 14 -11 43 -17 65 -6 22 -11 48 -11 58 0 9
-5 17 -10 17 -6 0 -7 4 -4 10 3 5 1 19 -5 30 -16 30 -86 29 -96 -2 -5 -13 -7
-27 -5 -33 7 -21 6 -61 -1 -82 -4 -13 -4 -23 0 -23 4 0 7 -63 7 -140 0 -77 -3
-140 -7 -140 -4 0 -5 -7 -1 -16 9 -23 8 -107 -1 -122 -4 -7 -1 -14 8 -18 9 -3
13 -11 9 -18 -4 -7 -2 -7 8 1 9 7 25 11 37 8 29 -5 30 5 28 173 -1 78 2 142 6
142 4 0 12 -9 18 -20 6 -11 8 -20 4 -20 -3 0 -1 -7 6 -15 7 -8 10 -15 6 -15
-3 0 -1 -12 5 -27 13 -34 49 -172 52 -195 1 -10 6 -18 12 -19 5 0 23 -3 39 -5
21 -4 32 0 40 13 10 17 17 597 7 587 -2 -2 -10 1 -18 7 -10 9 -13 8 -13 -2 0
-9 -3 -10 -8 -4 -10 14 -38 15 -40 1z"/>
<path d="M4337 2334 c-3 -4 -56 -6 -117 -5 -116 2 -112 4 -112 -44 0 -39 2
-42 38 -40 19 1 37 -3 40 -7 11 -17 10 -108 -1 -108 -7 0 -7 -3 0 -8 15 -11
17 -32 3 -32 -10 0 -10 -2 0 -9 8 -4 14 -12 14 -16 0 -4 -6 -12 -14 -16 -7 -5
-8 -9 -3 -9 6 0 9 -57 8 -155 -1 -151 -1 -155 20 -159 34 -7 57 -4 59 8 0 6 2
31 3 56 0 25 4 50 8 57 4 6 3 14 -2 17 -6 4 -6 18 -1 35 4 16 6 31 4 34 -10
10 -10 77 0 77 6 0 5 4 -2 9 -15 9 -15 20 0 39 6 6 6 12 1 12 -7 0 -10 142 -3
160 2 3 2 8 1 12 0 3 15 5 34 3 38 -3 42 -1 48 36 5 25 -15 64 -26 53z"/>
<path d="M4570 2328 c-31 -11 -77 -61 -72 -77 2 -6 0 -17 -5 -24 -11 -13 -10
-58 1 -102 7 -26 96 -149 114 -157 15 -6 52 -61 46 -69 -3 -5 -1 -9 5 -9 5 0
8 -10 5 -22 -3 -13 -6 -29 -8 -37 -8 -42 -79 -30 -91 16 -10 41 -21 50 -55 45
-28 -4 -31 -8 -29 -36 2 -17 5 -35 8 -41 3 -5 6 -13 6 -16 0 -17 50 -69 66
-69 10 0 20 -4 23 -9 8 -12 55 -7 88 9 31 15 73 91 71 130 -3 72 -33 131 -97
193 -67 66 -91 139 -60 181 15 22 64 15 64 -9 0 -8 4 -15 10 -15 5 0 7 -7 4
-15 -7 -16 5 -18 45 -6 28 8 34 32 18 69 -13 28 -47 67 -47 55 0 -5 -4 -2 -8
5 -11 16 -69 22 -102 10z"/>
<path d="M425 2322 c-11 -7 -15 -575 -5 -586 3 -3 20 -7 38 -11 27 -4 32 -2
38 19 3 14 4 29 1 33 -3 5 -2 15 3 23 5 9 5 19 -1 26 -7 8 -7 14 0 18 6 4 8
13 5 21 -9 23 -10 115 -1 115 5 0 5 5 2 10 -3 6 -2 10 3 10 12 0 33 -80 25
-93 -3 -5 0 -13 6 -17 7 -4 13 -26 14 -48 1 -23 5 -42 10 -42 4 0 6 -3 5 -7
-1 -5 1 -22 4 -38 5 -24 12 -30 30 -30 30 2 50 13 43 25 -3 5 -1 11 4 14 5 4
8 17 6 31 -1 14 1 25 4 25 4 0 7 8 7 18 2 59 23 152 35 152 9 0 10 -15 12
-177 1 -68 4 -83 16 -84 9 -1 26 -3 39 -4 14 -1 22 3 23 14 3 50 4 549 1 567
-3 17 -11 21 -50 22 -53 2 -66 -4 -69 -33 -2 -11 -5 -33 -8 -50 -3 -16 -7 -50
-10 -75 -6 -46 -12 -85 -15 -85 -1 0 -4 -18 -6 -40 -4 -44 -24 -109 -30 -102
-5 5 -11 33 -19 92 -3 22 -8 47 -10 55 -2 8 -6 33 -10 55 -3 22 -8 54 -11 70
-3 17 -7 41 -9 55 -7 50 -14 57 -63 58 -26 1 -52 -2 -57 -6z"/>
<path d="M935 2323 c-6 -5 -10 -25 -10 -45 0 -21 -4 -38 -10 -38 -7 0 -7 -3 0
-8 12 -9 15 -72 3 -72 -5 0 -6 -5 -2 -12 11 -18 13 -70 3 -90 -6 -10 -5 -19 1
-23 8 -5 8 -11 0 -20 -8 -9 -8 -15 0 -20 6 -3 7 -20 4 -38 -6 -30 -6 -46 0
-92 1 -11 -2 -26 -8 -33 -6 -8 -6 -16 0 -20 5 -4 9 -25 9 -47 0 -39 0 -39 42
-43 l41 -3 -2 35 c-1 20 3 38 9 40 6 3 6 5 0 5 -9 1 -12 138 -3 146 2 2 19 5
38 7 36 4 86 31 107 58 31 40 33 189 4 252 -11 24 -20 39 -21 35 0 -4 -9 0
-20 11 -15 14 -38 18 -97 20 -43 1 -83 -1 -88 -5z m146 -90 c19 -19 28 -105
16 -155 -8 -30 -33 -42 -69 -33 -15 4 -24 13 -24 26 0 10 3 19 6 19 3 0 4 29
2 65 -3 43 1 69 10 79 14 16 42 16 59 -1z"/>
<path d="M1309 2328 c-4 -12 -5 -568 -1 -586 3 -14 10 -21 18 -18 7 3 16 1 19
-4 4 -6 14 -5 25 3 18 10 20 23 20 119 l0 108 25 0 c19 0 26 -7 31 -27 3 -16
8 -37 12 -48 6 -22 10 -43 16 -90 2 -16 5 -32 6 -35 1 -3 2 -8 1 -12 0 -5 0
-8 1 -9 2 0 23 -2 47 -5 l43 -5 -5 43 c-3 24 -8 54 -12 68 -11 43 -17 74 -20
95 -2 11 -4 21 -5 23 -8 8 -5 32 8 62 7 19 16 46 19 60 7 41 9 131 2 136 -4 2
-6 15 -6 28 0 27 -32 75 -50 76 -7 0 -13 4 -13 8 0 7 -179 17 -181 10z m157
-90 c3 -4 6 -12 8 -20 1 -7 5 -18 9 -25 4 -6 3 -15 -3 -18 -7 -5 -8 -11 -1
-19 11 -13 10 -34 -3 -55 -6 -10 -5 -12 3 -7 8 6 8 1 0 -18 -14 -29 -39 -40
-70 -31 -19 6 -20 14 -18 98 1 51 3 95 5 98 4 7 62 4 70 -3z"/>
<path d="M2505 2320 c-4 -6 -6 -32 -5 -58 1 -26 1 -50 0 -54 -2 -10 -2 -75 0
-85 1 -5 1 -42 0 -83 -2 -89 -2 -141 0 -155 0 -5 2 -44 3 -85 l2 -75 108 -1
c117 0 125 4 121 55 -2 31 -17 39 -75 37 -28 -1 -52 2 -55 6 -3 5 -9 6 -14 3
-5 -3 -8 29 -7 72 l2 78 37 6 c21 3 41 2 47 -4 13 -13 23 8 23 50 0 43 -11 51
-66 47 l-43 -3 -1 85 c0 48 5 87 11 91 6 4 7 1 2 -7 -6 -10 -4 -11 6 -4 8 5
39 9 69 9 53 0 54 1 61 32 3 18 2 36 -4 42 -14 14 -214 15 -222 1z"/>
<path d="M2848 2313 c-3 -14 -2 -510 1 -574 1 -19 61 -22 73 -4 4 5 8 64 8
130 0 66 5 127 10 135 8 12 10 10 11 -10 3 -39 4 -44 11 -55 3 -6 9 -29 12
-51 4 -23 11 -56 16 -74 5 -18 9 -35 9 -39 -5 -37 39 -63 67 -40 11 9 30 105
27 137 0 6 2 12 6 12 4 0 8 17 9 37 2 21 8 40 13 44 6 3 10 9 10 13 -3 19 0
28 6 22 4 -4 7 -66 8 -138 l0 -131 34 -3 c19 -3 37 0 40 5 5 8 7 497 2 579 -1
19 -6 22 -45 22 -47 0 -75 -18 -77 -48 0 -9 -3 -33 -6 -52 -3 -19 -6 -45 -6
-57 -1 -13 -4 -23 -7 -23 -4 0 -6 -10 -7 -22 -1 -23 -10 -86 -17 -123 -3 -11
-5 -29 -5 -40 -1 -27 -19 -7 -25 30 -3 17 -8 41 -12 55 -3 14 -7 39 -8 55 -1
17 -5 35 -9 41 -4 6 -8 32 -9 58 -2 25 -5 46 -8 46 -3 0 -6 8 -7 18 -4 54 -13
62 -74 62 -36 0 -48 -4 -51 -17z"/>
<path d="M5044 1979 c-13 -20 -12 -259 1 -260 50 -7 105 -4 109 6 6 17 -10 39
-23 31 -6 -4 -20 -2 -31 4 -17 9 -19 19 -17 75 1 36 -1 65 -5 65 -4 0 -3 11 2
24 7 19 5 30 -9 47 -15 18 -19 20 -27 8z"/>
<path d="M5275 1980 c-11 -4 -23 -6 -27 -3 -5 2 -8 -2 -8 -11 0 -8 -5 -16 -11
-18 -17 -6 -19 -168 -3 -200 8 -16 20 -29 27 -30 52 -6 68 -3 87 17 26 28 24
77 -3 81 -17 2 -40 -32 -31 -47 7 -13 -25 -18 -33 -6 -12 18 -11 161 0 169 17
11 37 -3 37 -27 0 -18 4 -21 25 -17 26 4 29 12 19 47 -7 27 -55 54 -79 45z"/>
<path d="M4857 1973 c-3 -7 -2 -239 2 -253 0 -3 25 -6 55 -7 45 0 55 3 59 18
3 13 0 19 -11 20 -10 1 -21 2 -27 4 -5 1 -16 3 -23 3 -10 2 -13 26 -11 101 1
54 -2 104 -5 110 -8 12 -33 15 -39 4z"/>
<path d="M4580 1682 c-19 -2 -38 -9 -43 -15 -4 -7 -6 -78 -5 -159 l2 -146 64
-4 c35 -2 66 0 69 5 2 4 9 5 14 2 16 -10 149 -13 155 -4 3 5 9 7 13 5 4 -3 13
9 20 26 8 17 22 39 32 49 38 38 56 41 235 35 157 -5 178 -4 219 14 25 11 45
22 45 26 0 14 -36 33 -62 34 -15 0 -29 4 -32 8 -3 4 -40 7 -83 5 -199 -9 -269
-8 -279 2 -6 5 -22 17 -34 25 -12 8 -30 33 -41 56 l-19 40 -118 0 c-64 -1
-133 -2 -152 -4z"/>
<path d="M218 1552 c-46 -4 -63 -22 -45 -47 13 -17 105 -18 2070 -19 1131 0
2070 3 2087 7 16 4 30 12 30 18 0 15 -23 35 -40 37 -53 3 -352 4 -355 0 -2 -2
-30 -1 -62 2 -90 8 -3587 5 -3601 -4 -6 -4 -12 -3 -12 1 0 9 -12 10 -72 5z"/>
</g>
</svg>
